PathFileType	4	(X/Y/Z)	C:\Users\Basilio\Documents\Thesis Gigler\squatting_fais\c3dfiles\038\SLS_back_pre1\markers_experimental.trc
DataRate	CameraRate	NumFrames	NumMarkers	Units	OrigDataRate	OrigDataStartFrame	OrigNumFrames
200.000000	200.000000	4	63	mm	200.000000	905	1448
Frame#	Time	FHD			LBHD			RBHD			C7			T10			CLAV			LSHO			LUUPA			LMUPA			LDUPA			LLEP			LMEP			LUL			LRFIN			RSHO			RUPA1			RMUPA			RDUPA			RLEP			RMEP			RRAD			RUL			RUFIN			LASI			RASI			USACR			LSACR			RSACR			LTHI1			LTHI2			LTHI3			LTHI4			LLFC			LMFC			LTIB1			LTIB2			LTIB3			LTIB4			LLMAL			LMMAL			LHEE			LMT1			LMT2			LMT5			RTHI			RTHI2			RTHI3			RTHI4			RLFC			RMFC			RTIB1			RTIB2			RTIB3			RTIB4			RLMAL			RMMAL			RHEE			RMT1			RMT2			RMT5			LRAD			*61			*62			
		X1	Y1	Z1	X2	Y2	Z2	X3	Y3	Z3	X4	Y4	Z4	X5	Y5	Z5	X6	Y6	Z6	X7	Y7	Z7	X8	Y8	Z8	X9	Y9	Z9	X10	Y10	Z10	X11	Y11	Z11	X12	Y12	Z12	X13	Y13	Z13	X14	Y14	Z14	X15	Y15	Z15	X16	Y16	Z16	X17	Y17	Z17	X18	Y18	Z18	X19	Y19	Z19	X20	Y20	Z20	X21	Y21	Z21	X22	Y22	Z22	X23	Y23	Z23	X24	Y24	Z24	X25	Y25	Z25	X26	Y26	Z26	X27	Y27	Z27	X28	Y28	Z28	X29	Y29	Z29	X30	Y30	Z30	X31	Y31	Z31	X32	Y32	Z32	X33	Y33	Z33	X34	Y34	Z34	X35	Y35	Z35	X36	Y36	Z36	X37	Y37	Z37	X38	Y38	Z38	X39	Y39	Z39	X40	Y40	Z40	X41	Y41	Z41	X42	Y42	Z42	X43	Y43	Z43	X44	Y44	Z44	X45	Y45	Z45	X46	Y46	Z46	X47	Y47	Z47	X48	Y48	Z48	X49	Y49	Z49	X50	Y50	Z50	X51	Y51	Z51	X52	Y52	Z52	X53	Y53	Z53	X54	Y54	Z54	X55	Y55	Z55	X56	Y56	Z56	X57	Y57	Z57	X58	Y58	Z58	X59	Y59	Z59	X60	Y60	Z60	X61	Y61	Z61	X62	Y62	Z62	X63	Y63	Z63	

906	4.525	-138.9086151123047	1501.325927734375	-1089.761840820313	-292.0038452148438	1442.852294921875	-1151.071044921875	-284.1457824707032	1431.097412109375	-1006.515014648438	-335.9317321777344	1290.610717773438	-1070.575073242188	-417.5992126464845	1029.950317382813	-1023.332397460938	-198.1370239257813	1238.542114257813	-1081.674926757813	-255.7798461914063	1285.870727539063	-1219.65087890625	-106.1425476074219	1226.171997070313	-1360.885131835938	-76.64286041259767	1258.787719726563	-1335.343994140625	-37.86421203613282	1232.959228515625	-1373.049072265625	25.31953430175782	1236.253784179688	-1378.6376953125	36.54593658447266	1161.576538085938	-1357.16796875	319.4740295410157	1253.333862304688	-1329.651123046875	377.1356506347657	1265.17333984375	-1235.054809570313	-229.9146728515626	1292.750732421875	-945.519470214844	-72.85995483398439	1274.259643554688	-832.0429687500002	-39.18113708496094	1279.110229492188	-866.9656982421877	-4.608830451965333	1268.85400390625	-817.9731445312502	69.21706390380861	1265.831909179688	-810.786804199219	73.53653717041017	1186.723999023438	-822.742858886719	340.8746643066407	1252.956787109375	-907.3920898437502	356.3723144531251	1274.75537109375	-842.3518676757815	417.8004455566407	1287.93310546875	-923.6264648437502	-294.5982971191407	816.8540039062502	-1114.853149414063	-325.1632690429688	824.545104980469	-868.1237792968752	-470.2799377441407	887.8928222656252	-1007.86083984375	-485.018524169922	859.659362792969	-1039.041137695313	-491.1168823242189	860.1788330078127	-981.5986328125002	-185.7914428710938	579.4000244140626	-1179.1689453125	-110.9946060180664	536.3624877929689	-1174.169799804688	-81.07772827148439	564.3037109375001	-1145.336181640625	-104.9036941528321	476.6526489257814	-1160.06640625	-82.3488006591797	429.4014282226564	-1143.37353515625	-79.47677612304689	434.9486083984376	-1029.188842773438	-136.7795867919922	270.9236755371094	-1041.900512695313	-198.7471160888672	249.6186218261719	-1104.563842773438	-170.9645538330078	231.6805572509766	-1070.314086914063	-227.3587646484376	182.3088531494141	-1030.419677734375	-372.7443847656251	114.341552734375	-1043.989624023438	-330.4181213378907	132.2517700195313	-970.0254516601565	-432.9024658203126	101.8938598632813	-981.7928466796877	-233.2172241210938	47.24253845214844	-975.479919433594	-225.742660522461	44.13596725463868	-1025.78125	-271.4757690429688	33.4686508178711	-1072.72509765625	-390.1234741210939	551.7901000976564	-801.219177246094	-355.4226074218751	494.2688293457032	-789.7993164062502	-322.2517395019532	493.8134155273439	-791.5064697265627	-386.6695251464845	414.7498474121095	-800.416198730469	-386.5076599121095	313.1005554199219	-812.074645996094	-375.6509094238282	305.2468872070313	-928.2414550781252	-521.1054077148439	216.8618774414063	-858.1678466796877	-621.8610229492189	273.8673095703126	-841.4229125976565	-605.7337646484376	229.2769927978516	-847.6597900390627	-646.9174194335939	207.1260528564454	-885.2901611328127	-777.8381347656252	243.2672424316407	-879.8492431640627	-753.7896118164064	212.9996185302735	-955.1107177734377	-792.909118652344	301.6234436035157	-951.2266235351565	-840.5942382812502	90.0055618286133	-956.0378417968752	-852.4758300781252	89.69104766845705	-908.8751220703127	-880.5916137695315	135.4822235107422	-875.1539306640627	nan	nan	nan	nan	nan	nan	nan	nan	nan	
907	4.53	-138.9232330322266	1501.421997070313	-1090.1201171875	-292.0486755371094	1442.78857421875	-1151.211181640625	-284.2073059082032	1431.103393554688	-1006.626403808594	-335.9607238769532	1290.594848632813	-1070.621337890625	-417.6142883300782	1029.974975585938	-1023.243225097656	-198.1425170898438	1238.511962890625	-1081.781127929688	-255.9379882812501	1285.85595703125	-1219.694946289063	-106.1985321044922	1226.188354492188	-1360.904907226563	-76.72300720214845	1258.494018554688	-1334.986572265625	-37.97698974609376	1232.944580078125	-1373.085571289063	25.25465393066407	1236.306396484375	-1378.76171875	36.46874618530274	1161.610961914063	-1357.127685546875	319.4307250976563	1253.455322265625	-1329.585571289063	376.9795532226563	1265.228759765625	-1234.960571289063	-229.9088134765626	1292.726318359375	-945.6386718750002	-72.76165008544923	1274.276123046875	-832.1777954101565	-39.0859489440918	1279.17138671875	-867.082458496094	-4.542373657226563	1268.853149414063	-818.1625976562502	69.3447952270508	1265.9541015625	-810.9337158203127	73.63205718994142	1186.80029296875	-822.8189697265627	340.9866943359376	1253.081665039063	-907.4302368164065	356.4205322265626	1274.866943359375	-842.4373168945315	418.0342102050782	1288.2509765625	-923.9188232421877	-294.7090454101563	816.9155883789065	-1115.01220703125	-324.9623718261719	824.524597167969	-868.1865234375002	-470.3068847656251	887.9243164062502	-1007.721557617188	-485.086395263672	859.6112060546877	-1038.908325195313	-491.1697082519532	860.1238403320315	-981.466247558594	-186.1016387939453	579.4096679687501	-1179.645629882813	-111.3336715698242	536.1861572265626	-1174.812377929688	-81.29388427734376	564.3486328125001	-1146.279418945313	-105.1917724609375	476.6782226562501	-1160.6630859375	-82.64953613281251	429.3897705078126	-1144.110595703125	-79.52879333496095	434.9581298828126	-1030.1943359375	-136.8726654052735	270.8418273925782	-1042.567138671875	-198.9729461669922	249.6583557128907	-1105.090576171875	-171.2704010009766	231.8777008056641	-1070.888305664063	-227.465560913086	182.2598724365235	-1030.7001953125	-372.7453918457032	114.2597579956055	-1044.206176757813	-330.4181518554688	132.3509674072266	-970.238464355469	-432.8587951660157	101.8957290649414	-981.7965087890627	-233.244369506836	47.39242172241212	-975.479431152344	-225.6483612060547	44.05891799926759	-1025.820068359375	-271.5655517578126	33.38439178466798	-1072.72998046875	-389.9695129394532	551.6939697265626	-801.2019653320315	-354.9978942871094	494.803680419922	-789.6317138671877	-322.0227355957032	493.7279052734376	-791.905700683594	-386.4984130859376	414.6950073242189	-800.5149536132815	-386.373260498047	313.0417175292969	-812.260925292969	-375.6074523925782	305.2091674804688	-928.3389282226565	-520.8970336914064	216.8083496093751	-858.3693847656252	-621.6098632812501	273.6804504394532	-841.4581298828127	-605.5440063476564	229.0837707519532	-847.9019775390627	-646.8198852539064	206.9104614257813	-885.3870849609377	-777.6689453125002	242.9577789306641	-879.9150390625002	-753.6436157226564	212.7720336914063	-955.263366699219	-792.7642822265627	301.3417968750001	-951.2774047851565	-840.4191894531252	89.70826721191408	-956.2088012695315	-852.1584472656252	89.37705230712892	-908.8794555664065	-880.3837890625002	135.1773834228516	-875.2711181640627	nan	nan	nan	nan	nan	nan	nan	nan	nan	
908	4.535	-138.9661865234375	1501.196533203125	-1090.173706054688	-292.1236877441407	1442.796508789063	-1151.309204101563	-284.1706848144532	1431.108520507813	-1006.723022460938	-336.0188903808594	1290.723266601563	-1070.658813476563	-417.6786499023439	1029.958862304688	-1023.236328125	-198.1472473144532	1238.527099609375	-1081.902465820313	-256.0864257812501	1285.880004882813	-1219.776977539063	-106.3174896240235	1226.133178710938	-1360.944946289063	-76.81433105468751	1258.520141601563	-1335.0009765625	-38.0982780456543	1232.911987304688	-1373.054443359375	25.14314651489259	1236.336669921875	-1378.7822265625	36.40882873535157	1161.568237304688	-1357.114135742188	319.3515319824219	1253.580688476563	-1329.524780273438	376.8159790039063	1265.361328125	-1234.848999023438	-229.8181915283204	1292.763549804688	-945.6900634765627	-72.64939117431642	1274.284301757813	-832.3732910156252	-38.95093154907227	1279.265502929688	-867.194763183594	-4.479581356048585	1268.920288085938	-818.318542480469	69.40511322021486	1266.034545898438	-811.0531005859377	73.74061584472658	1186.956420898438	-822.895446777344	341.0084228515626	1253.162963867188	-907.495544433594	356.4902954101563	1275.015258789063	-842.447692871094	418.1548767089845	1288.347045898438	-923.8696899414065	-294.9332580566407	816.945007324219	-1115.275512695313	-324.7492980957032	824.4148559570315	-868.2388916015627	-470.3301086425782	887.9414062500002	-1007.593505859375	-485.2036437988282	859.642761230469	-1038.817993164063	-491.2016601562501	860.1398925781252	-981.369567871094	-186.0669860839844	579.8066406250001	-1180.115844726563	-111.7324371337891	536.1918945312501	-1175.405639648438	-81.49415588378908	564.3830566406251	-1147.015991210938	-105.4196929931641	476.6944580078126	-1161.42333984375	-82.80662536621095	429.3323669433595	-1144.706665039063	-79.65029144287111	434.9595031738282	-1030.891723632813	-136.9469451904297	270.8850402832032	-1043.285400390625	-199.2313385009766	249.6645965576172	-1105.654174804688	-171.2508239746094	231.6238403320313	-1071.331665039063	-227.5314636230469	182.2207489013672	-1031.247436523438	-372.8069458007813	114.2921752929688	-1044.245239257813	-330.4450073242188	132.468978881836	-970.4658813476565	-432.726531982422	101.6518783569336	-982.5730590820315	-233.2789154052735	47.36269760131837	-975.5428466796877	-225.7239227294922	44.02620315551759	-1025.89404296875	-271.5592651367188	33.33891296386719	-1072.793090820313	-389.8622131347657	551.6458740234376	-801.227966308594	-355.1753540039063	494.4830627441407	-790.130065917969	-321.8691406250001	493.735565185547	-792.0314941406252	-386.2877197265626	414.6408691406251	-800.6416015625002	-386.2755126953126	312.9824218750001	-812.3943481445315	-375.6080017089844	305.2628173828126	-928.5496215820315	-520.6557617187501	216.7010803222657	-858.399353027344	-621.4570312500001	273.5374145507813	-841.5827636718752	-605.4515380859376	228.8983154296876	-848.0007934570315	-646.6417846679689	206.7730255126954	-885.5339965820315	-777.4562988281252	242.6374664306641	-880.0935668945315	-753.4968872070314	212.5812988281251	-955.380798339844	-792.6047363281252	301.0391540527344	-951.3621826171877	-840.2278442382815	89.29504394531251	-956.3638305664065	-851.8426513671877	89.18715667724611	-909.5280761718752	-880.182556152344	134.92822265625	-875.3684692382815	nan	nan	nan	nan	nan	nan	nan	nan	nan	
909	4.54	-139.162582397461	1501.70068359375	-1090.62353515625	-292.1932678222657	1442.737182617188	-1151.402221679688	-284.2551269531251	1431.186645507813	-1006.848449707031	-336.0812377929688	1290.743896484375	-1070.68798828125	-417.6979370117189	1030.009155273438	-1023.163696289063	-198.2530517578126	1238.535888671875	-1082.06982421875	-256.0910034179688	1285.861206054688	-1219.814819335938	-106.4258346557617	1226.167602539063	-1360.9921875	-76.92097473144533	1258.58984375	-1335.052001953125	-38.18107223510743	1232.906616210938	-1373.087524414063	25.07397651672364	1236.325805664063	-1378.782836914063	36.30312728881837	1161.57373046875	-1357.0458984375	319.1930847167969	1253.6728515625	-1329.449340820313	376.6759948730469	1265.486694335938	-1234.7255859375	-229.8001708984376	1292.785766601563	-945.842224121094	-72.61264801025392	1274.373657226563	-832.4710693359377	-38.97877883911134	1279.398315429688	-867.333679199219	-4.421688556671143	1269.01806640625	-818.4685668945315	69.43289947509767	1266.149658203125	-811.2444458007815	73.74899291992189	1187.04931640625	-823.014831542969	341.1913757324219	1253.30712890625	-907.5197753906252	356.4975280761719	1275.2275390625	-842.474792480469	418.2530212402345	1288.455078125	-923.9150390625002	-295.1040344238282	816.9865722656252	-1115.371337890625	-324.5832519531251	824.430358886719	-868.2817993164065	-470.3352661132814	887.982849121094	-1007.529174804688	-485.1529235839845	859.6147460937502	-1038.699340820313	-491.1960449218751	860.1599731445315	-981.296569824219	-186.377426147461	579.8687133789064	-1180.683349609375	-112.1182861328125	536.2474365234376	-1176.009643554688	-81.72998046875001	564.3547973632814	-1147.647094726563	-105.298698425293	476.2887268066407	-1162.047485351563	-83.30496978759767	429.3300781250001	-1145.354125976563	-79.64292907714845	435.0097656250001	-1031.537231445313	-137.0286254882813	270.8637390136719	-1043.845458984375	-199.3945465087891	249.6447448730469	-1106.131591796875	-171.2396392822266	231.7141571044922	-1072.125122070313	-227.5996551513672	182.1196746826172	-1031.659545898438	-372.8578186035157	114.3142013549805	-1044.323120117188	-330.3984985351563	132.4877014160157	-970.6157836914065	-432.6879272460939	101.6768188476563	-982.5376586914065	-233.2805633544922	47.4084587097168	-975.633483886719	-225.7185058593751	44.0479965209961	-1026.002685546875	-271.5846557617188	33.31280517578126	-1072.852905273438	-389.6536254882814	551.6002197265626	-801.301452636719	-355.0080261230469	494.5403747558595	-790.2106933593752	-321.6459655761719	493.7269592285157	-792.203308105469	-386.107879638672	414.6407165527345	-800.8149414062502	-386.1078186035157	312.9554748535157	-812.5489501953127	-375.4124450683594	305.2291870117188	-928.724304199219	-520.4183959960939	216.4031677246094	-858.9063720703127	-621.3071289062501	273.3994750976563	-841.6954345703127	-605.3609008789064	228.7159881591797	-848.0729980468752	-646.1868286132814	206.6872711181641	-885.9027099609377	-777.1806640625002	242.3036346435547	-880.251403808594	-753.2922973632814	212.3130950927735	-955.5615844726565	-792.4006958007815	300.7245483398438	-951.4920043945315	-840.0727539062502	89.04373168945314	-956.489440917969	-851.5032348632815	89.00136566162111	-909.4392700195315	-880.1376953125002	134.8584136962891	-875.516784667969	nan	nan	nan	nan	nan	nan	nan	nan	nan	
